# xmcd
#
# Track frame offsets: 
#        150
#        12343
#        21933
#        35800
#        46840
#        58600
#        69319
#        81794
#        94067
#        104376
#        115652
#        129945
#        140576
#        150762
#        162069
#
# Disc length: 2309 seconds
#
# Revision: 0
# Processed by: cddbd v1.4PL0 Copyright (c) Steve Scherf et al.
# Submitted via: ExactAudioCopy v0.90b3
#
DISCID=b409030f
DTITLE=George Jones - Country Legends (European Version)
DYEAR=1900
DGENRE=Country
TTITLE0=You Comb Her Hair
TTITLE1=The Race Is On
TTITLE2=A Good Year For The Roses
TTITLE3=Now What I Had In Mind
TTITLE4=Where Does A Little Tear Come From
TTITLE5=Wrong Number
TTITLE6=If My Heart Had Windows
TTITLE7=Sometimes You Just Can't Win
TTITLE8=Walk Through This World With Me
TTITLE9=Don't Let The Stars Get In Your Eyes
TTITLE10=Open Pit Mine
TTITLE11=I'll Never Let Go Of You
TTITLE12=Your Heart Turned Left (And I Was On The Right)
TTITLE13=I'll Share My World With You
TTITLE14=Big Fool Of The Year
EXTD=
EXTT0=
EXTT1=
EXTT2=
EXTT3=
EXTT4=
EXTT5=
EXTT6=
EXTT7=
EXTT8=
EXTT9=
EXTT10=
EXTT11=
EXTT12=
EXTT13=
EXTT14=
PLAYORDER=
